<?xml version="1.0" encoding="utf-8"?>
<!-- Generator: Adobe Illustrator 27.1.0, SVG Export Plug-In . SVG Version: 6.00 Build 0)  -->
<svg version="1.1" id="Layer_1" xmlns="http://www.w3.org/2000/svg" xmlns:xlink="http://www.w3.org/1999/xlink" x="0px" y="0px"
	 viewBox="0 0 256 256" style="enable-background:new 0 0 256 256;" xml:space="preserve">
<style type="text/css">
	.st0{fill:#1E7B72;}
	.st1{fill:#FFFFFF;}
</style>
<g>
	<rect class="st0" width="256" height="256"/>
</g>
<g>
	<g>
		<path class="st1" d="M156.3,216.5l-47.4-25.1H89.2c-11.1,0-20.2-9.1-20.2-20.2v-51.3h6.9v51.3c0,7.3,6,13.3,13.3,13.3h21.4
			l38.8,20.6l0.1-20.6h21.4c7.3,0,13.3-6,13.3-13.3V61.2c0-7.3-6-13.3-13.3-13.3H89.2c-7.3,0-13.3,6-13.3,13.3H69
			C69,50.1,78.1,41,89.2,41h81.7c11.1,0,20.2,9.1,20.2,20.2v109.9c0,11.1-9.1,20.2-20.2,20.2h-14.5L156.3,216.5z"/>
	</g>
	<g>
		<g>
			<path class="st1" d="M45.9,98.2c0-12.5,6.8-22.9,18-28.6l3.4,6.1c-8.3,4.8-13,12-13,21.6l2.4,9.8l-6.9-8.4c2.1-2.4,5-4.1,7.9-4.1
				c5.1,0,8.8,3.8,8.8,9.1c0,5.6-3.8,9.6-9.3,9.6C50.7,113.4,45.9,107.7,45.9,98.2z M74.7,98.2c0-12.5,6.8-22.9,18-28.6l3.4,6.1
				c-8.3,4.8-13,12-13,21.6l2.4,9.8l-6.9-8.4c2.1-2.4,5-4.1,7.9-4.1c5.1,0,8.8,3.8,8.8,9.1c0,5.6-3.8,9.6-9.3,9.6
				C79.4,113.4,74.7,107.7,74.7,98.2z"/>
		</g>
	</g>
	<g>
		<g>
			<path class="st1" d="M94.8,142.5c3.7,2.5,7.4,4.2,11.9,4.2c4.1,0,6.3-1.7,6.3-4.3c0-6.7-19.8-5.5-19.8-17.2
				c0-6.3,5.5-10.4,13.6-10.4c5.8,0,9.5,2.2,12.6,5.3l-3.8,4.4c-3-2.2-5.4-3.5-9.3-3.5c-3.6,0-5.8,1.6-5.8,4.1
				c0,5.9,19.8,4.9,19.8,16.8c0,6.3-5.5,10.9-14.6,10.9c-5,0-10.7-2.1-14.2-5.2L94.8,142.5z M103.9,106.6h5.1v10.9h-5.1V106.6z
				 M109,150v12.3h-5.1V150H109z"/>
		</g>
	</g>
	<g>
		<rect x="103.9" y="66.6" class="st1" width="59.9" height="6"/>
	</g>
	<g>
		<rect x="103.9" y="84.5" class="st1" width="59.9" height="6"/>
	</g>
	<g>
		<rect x="130.1" y="102.4" class="st1" width="33.7" height="6"/>
	</g>
	<g>
		<rect x="130.1" y="120.3" class="st1" width="33.7" height="6"/>
	</g>
	<g>
		<rect x="130.1" y="138.2" class="st1" width="33.7" height="6"/>
	</g>
	<g>
		<rect x="130.1" y="156.1" class="st1" width="33.7" height="6"/>
	</g>
</g>
</svg>
